<?xml version="1.0" standalone="no"?>
<!DOCTYPE svg PUBLIC "-//W3C//DTD SVG 20010904//EN"
 "http://www.w3.org/TR/2001/REC-SVG-20010904/DTD/svg10.dtd">
<svg version="1.0" xmlns="http://www.w3.org/2000/svg"
 width="700.000000pt" height="700.000000pt" viewBox="0 0 700.000000 700.000000"
 preserveAspectRatio="xMidYMid meet">
<metadata>
Created by potrace 1.14, written by Peter Selinger 2001-2017
</metadata>
<g transform="translate(0.000000,700.000000) scale(0.100000,-0.100000)"
fill="#000000" stroke="none">
<path d="M1167 6115 c-1 -5 -2 -685 -1 -1510 2 -1636 0 -1584 59 -1760 103
-306 320 -551 610 -690 108 -51 202 -80 340 -103 22 -3 492 -6 1045 -6 930 0
1011 1 1088 17 237 52 430 155 593 317 169 168 269 350 325 590 15 64 18 141
21 535 2 253 4 487 6 519 l2 60 335 1 c373 1 392 4 523 72 108 57 209 169 260
288 41 97 44 140 43 681 -1 285 -4 524 -8 530 -4 6 -9 23 -12 38 -8 43 -62
153 -98 199 -85 109 -213 192 -339 218 -72 15 -4787 19 -4792 4z m4655 -578
c10 -3 13 -93 12 -431 0 -234 -4 -429 -8 -433 -3 -4 -135 -7 -291 -7 l-285 -1
0 437 0 437 38 3 c58 5 520 1 534 -5z"/>
<path d="M584 1166 l1 -291 2623 0 c2620 0 2622 0 2623 20 3 60 4 533 1 546
-3 15 -208 17 -2626 17 l-2622 0 0 -292z"/>
</g>
</svg>
